# xmcd CD database file
#
# Track frame offsets:
#	150
#	16800
#	41393
#	71401
#	91828
#	117558
#	138762
#	184967
#	231307
#	253140
#	272291
#	295006
#
# Disc length: 4251 seconds
#
# Revision: 0
# Processed by: cddbd v1.4PL0 Copyright (c) Steve Scherf et al.
# Submitted via: CDex 1.50
#
DISCID=a010990c
DTITLE=Various Artist - Smooth Jazz 5
DYEAR=1900
DGENRE=Jazz
TTITLE0=Mystic Voyage/Roy Ayers
TTITLE1=Sexual Healing/Fourplay
TTITLE2=The Secret Garden/Brian Culbertson
TTITLE3=For The Love of You/Candie Dulfer
TTITLE4=In The Mood/Gerald Albright
TTITLE5=Wanna Be With You/Urban Knights
TTITLE6=Moments Of Love/The Art of Noise
TTITLE7=The World is a Ghetto/War
TTITLE8=Walk on By/Peter White
TTITLE9=Chasing The Sunset/Count Basie
TTITLE10=Soul Swing/Paul Hardcastle
TTITLE11=More Than Friends/Jonathon Butler
EXTD=
EXTT0=
EXTT1=
EXTT2=
EXTT3=
EXTT4=
EXTT5=
EXTT6=
EXTT7=
EXTT8=
EXTT9=
EXTT10=
EXTT11=
PLAYORDER=
